<?xml version="1.0" encoding="iso-8859-1"?>
<!-- Generator: Adobe Illustrator 19.0.0, SVG Export Plug-In . SVG Version: 6.00 Build 0)  -->
<svg version="1.1" id="Layer_1" xmlns="http://www.w3.org/2000/svg" xmlns:xlink="http://www.w3.org/1999/xlink" x="0px" y="0px"
	 viewBox="0 0 496.25 496.25" style="enable-background:new 0 0 496.25 496.25;" xml:space="preserve">
<path style="fill:#11C1A3;" d="M136.192,409.56c1.213,0,2.198-0.977,2.198-2.206v-2.56c0-1.229-0.985-2.206-2.198-2.206h-2.418
	v-18.33c0-0.504-0.173-1.016-0.504-1.41l-12.603-14.73c-0.819-0.961-2.458-0.961-3.285,0l-12.611,14.73
	c-0.323,0.394-0.504,0.898-0.504,1.41v18.33h-9.232H83.96v-18.33c0-0.504-0.197-1.016-0.536-1.41l-12.595-14.73
	c-0.819-0.961-2.442-0.961-3.261,0l-12.611,14.73c-0.331,0.394-0.52,0.898-0.52,1.41v18.33H44.111h-9.98v-18.33
	c0-0.504-0.197-1.016-0.528-1.41l-12.587-14.73c-0.843-0.961-2.473-0.961-3.285,0l-12.603,14.73
	c-0.339,0.394-0.512,0.898-0.512,1.41v18.33H2.221C0.985,402.581,0,403.557,0,404.794v2.56c0,1.229,0.985,2.206,2.221,2.206h2.395
	v45.332H2.221c-1.237,0-2.221,0.992-2.221,2.206v2.56c0,1.229,0.985,2.206,2.221,2.206h2.395v24.277c0,1.182,0.961,2.15,2.135,2.15
	h25.214c1.197,0,2.158-0.969,2.158-2.15v-24.277h9.988h10.335v24.277c0,1.182,0.969,2.15,2.15,2.15h25.206
	c1.182,0,2.158-0.969,2.158-2.15v-24.277h11.075h9.232v24.277c0,1.182,0.961,2.15,2.135,2.15h25.222c1.189,0,2.143-0.969,2.143-2.15
	v-24.277h2.418c1.213,0,2.198-0.977,2.198-2.206v-2.56c0-1.213-0.985-2.206-2.198-2.206h-2.418V409.56H136.192z M44.111,454.891
	h-9.98V409.56h9.98h10.335v45.332H44.111z M95.035,454.891H83.96V409.56h11.075h9.232v45.332H95.035z"/>
<g>
	<path style="fill:#08A599;" d="M34.131,461.87v-6.979v-34.454v-6.987v-3.891v-6.979v-7.452c0-0.512-0.197-1.008-0.528-1.41
		l-12.587-14.722c-0.843-0.961-2.473-0.961-3.285,0L5.128,393.719c-0.339,0.402-0.512,0.89-0.512,1.41v7.452v6.979v3.891v6.987
		v34.454v6.979v3.891v6.987v13.399c0,1.182,0.961,2.15,2.135,2.15h25.214c1.197,0,2.158-0.969,2.158-2.15v-13.399v-6.987v-3.891
		H34.131z"/>
	<path style="fill:#08A599;" d="M133.774,461.87v-6.979v-34.454v-6.987v-3.891v-6.979v-7.452c0-0.512-0.173-1.008-0.504-1.41
		l-12.603-14.722c-0.819-0.961-2.458-0.961-3.285,0l-12.611,14.722c-0.323,0.402-0.504,0.89-0.504,1.41v7.452v6.979v3.891v6.987
		v34.454v6.979v3.891v6.987v13.399c0,1.182,0.961,2.15,2.135,2.15h25.222c1.189,0,2.143-0.969,2.143-2.15v-13.399v-6.987v-3.891
		H133.774z"/>
	<path style="fill:#08A599;" d="M83.96,461.87v-6.979v-34.454v-6.987v-3.891v-6.979v-7.452c0-0.512-0.197-1.008-0.536-1.41
		l-12.595-14.722c-0.819-0.961-2.442-0.961-3.261,0l-12.611,14.722c-0.331,0.402-0.52,0.89-0.52,1.41v7.452v6.979v3.891v6.987
		v34.454v6.979v3.891v6.987v13.399c0,1.182,0.969,2.15,2.15,2.15h25.206c1.182,0,2.158-0.969,2.158-2.15v-13.399v-6.987v-3.891
		H83.96z"/>
</g>
<path style="fill:#FFB000;" d="M440.288,480.94c0,4.072-3.293,7.365-7.341,7.365H148.819c-4.072,0-7.365-3.293-7.365-7.365V231.108
	c0-4.064,3.293-7.357,7.365-7.357h284.136c4.049,0,7.341,3.293,7.341,7.357V480.94H440.288z"/>
<path style="fill:#FF9100;" d="M141.454,231.108c0-4.064,3.293-7.357,7.365-7.357h284.136c4.049,0,7.341,3.293,7.341,7.357V480.94
	c0,4.072-3.293,7.365-7.341,7.365"/>
<path style="fill:#08A599;" d="M455.743,483.24c0,2.796-2.261,5.065-5.049,5.065H131.048c-2.804,0-5.057-2.261-5.057-5.065l0,0
	c0-2.788,2.245-5.057,5.057-5.057h319.646C453.482,478.183,455.743,480.444,455.743,483.24L455.743,483.24z"/>
<path style="fill:#EA186D;" d="M486.904,221.845l-192.89-90.947c-2.009-0.922-4.285-0.922-6.286,0L94.822,221.845
	c-3.088,1.457-4.773,4.884-4.025,8.247c0.748,3.356,3.734,5.742,7.16,5.742h385.827c3.426,0,6.412-2.387,7.152-5.742
	C491.701,226.728,490.031,223.302,486.904,221.845z"/>
<path style="fill:#D10D54;" d="M294.014,157.845c-2.009-0.922-4.285-0.922-6.286,0l-165.431,77.982h337.172L294.014,157.845z"/>
<path style="fill:#BC0F45;" d="M287.728,167.943L143.73,235.826h294.282l-143.998-67.883
	C292.005,167.021,289.729,167.021,287.728,167.943z"/>
<path style="fill:#EA186D;" d="M326.585,330.916h-71.641c-4.072,0-7.349,3.277-7.349,7.349v150.04h86.347V338.258
	C333.95,334.193,330.65,330.916,326.585,330.916z"/>
<path style="fill:#D10D54;" d="M326.585,330.916h-71.641c-0.11,0-0.181,0.063-0.284,0.063l79.281,69.971v-62.685
	C333.95,334.193,330.65,330.916,326.585,330.916z"/>
<path style="fill:#46B4DB;" d="M220.333,367.662c0,4.072-3.293,7.349-7.341,7.349h-29.389c-4.08,0-7.349-3.277-7.349-7.349v-29.397
	c0-4.072,3.269-7.349,7.349-7.349h29.389c4.049,0,7.341,3.277,7.341,7.349V367.662z"/>
<path style="fill:#2090BC;" d="M220.333,338.258c0-4.072-3.293-7.349-7.341-7.349h-7.389l-29.357,29.373v7.373
	c0,4.072,3.269,7.349,7.349,7.349h9.121l27.609-27.609v-9.137H220.333z"/>
<g>
	<path style="fill:#FFB000;" d="M195.545,381.14c0,1.512,1.229,2.765,2.749,2.765l0,0c1.528,0,2.757-1.245,2.757-2.765v-56.352
		c0-1.512-1.221-2.765-2.757-2.765l0,0c-1.512,0-2.749,1.245-2.749,2.765V381.14z"/>
	<path style="fill:#FFB000;" d="M170.11,350.199c-1.504,0-2.741,1.252-2.741,2.773l0,0c0,1.512,1.229,2.757,2.741,2.757h56.344
		c1.528,0,2.757-1.237,2.757-2.757l0,0c0-1.512-1.221-2.773-2.757-2.773H170.11z"/>
</g>
<path style="fill:#11C1A3;" d="M462.328,205.532c-45.19,45.198-118.469,45.198-163.667,0c-45.198-45.206-45.198-118.485,0-163.682
	c45.198-45.206,118.477-45.206,163.667,0C507.557,87.047,507.557,160.326,462.328,205.532z"/>
<path style="fill:#08A599;" d="M462.328,41.841c45.221,45.198,45.221,118.477,0,163.682c-45.19,45.198-118.469,45.198-163.667,0"/>
<polygon style="fill:#11C1A3;" points="325.364,219.119 265.192,239.001 285.05,178.829 325.364,178.829 "/>
<polygon style="fill:#08A599;" points="347.136,212.692 265.192,239.001 299.804,208.856 325.364,178.829 "/>
<path style="fill:#FFB000;" d="M397.761,191.589c0,4.238-3.434,7.672-7.68,7.672h-19.18c-4.246,0-7.688-3.434-7.688-7.672v-90.813
	c0-4.238,3.442-7.672,7.688-7.672h19.18c4.246,0,7.68,3.434,7.68,7.672V191.589z"/>
<path style="fill:#FF9100;" d="M363.221,140.964v50.633c0,4.238,3.442,7.672,7.688,7.672h19.18c4.246,0,7.68-3.434,7.68-7.672
	v-85.173L363.221,140.964z"/>
<circle style="fill:#FFB000;" cx="380.455" cy="60.486" r="18.542"/>
<g>
</g>
<g>
</g>
<g>
</g>
<g>
</g>
<g>
</g>
<g>
</g>
<g>
</g>
<g>
</g>
<g>
</g>
<g>
</g>
<g>
</g>
<g>
</g>
<g>
</g>
<g>
</g>
<g>
</g>
</svg>
