<svg width="1062" height="554" viewBox="0 0 1062 554" fill="none" xmlns="http://www.w3.org/2000/svg">
<path opacity="0.698236" d="M962.974 207.147C978.263 228.373 1000.79 245.892 1003.7 273.577C1006.67 301.771 1000.95 337.347 978.98 359.239C955.354 382.775 912.607 363.633 889.322 387.526C860.525 417.077 875.427 473.132 843.24 498.53C815.859 520.137 774.991 513.366 749.077 498.194C722.807 482.813 726.333 439.87 705.437 417.848C687.309 398.742 654.271 399.773 636.88 379.947C617.314 357.642 591.075 330.23 600.151 297.824C609.887 263.064 655.24 249.882 680.884 222.837C698.92 203.815 708.984 178.572 729.037 161.892C749.192 145.128 772.877 135.721 796.487 126.681C821.661 117.042 848.682 100.795 872.468 106.974C896.387 113.188 905.078 141.202 921.241 159.091C935.633 175.021 950.356 189.629 962.974 207.147Z" fill="#6842FF" fill-opacity="0.13"/>
<path d="M378.065 151.752C411.718 193.802 406.668 255.355 364.618 289.007C323.062 322.264 262.835 312.142 229.578 270.586C196.298 229.002 199.533 167.97 241.118 134.69C283.196 101.015 344.39 109.673 378.065 151.752Z" fill="url(#paint0_linear_1_31)" fill-opacity="0.1"/>
<path d="M483.708 194.34C538.1 227.269 572.722 286.303 555.589 344.982C538.032 405.109 476.793 444.212 410.521 444.991C348.918 445.715 299.256 402.882 278.724 348.234C258.981 295.684 272.867 236.622 319.173 201.857C366.624 166.233 432.657 163.434 483.708 194.34Z" fill="url(#paint1_linear_1_31)" fill-opacity="0.1"/>
<path d="M0.5 276C25.8333 239.167 78 164.3 84 159.5C185.6 145.1 152.333 82.8333 123 53.5L266 1L309.5 105.5C406.3 105.5 375.833 219.167 348.5 276C419 230.167 565.1 183.3 585.5 362.5C605.9 541.7 777.333 407.167 860.5 317.5L971 297C1034.2 237 838 137.333 732 95L585.5 8.5" stroke="#CECCCC"/>
<defs>
<linearGradient id="paint0_linear_1_31" x1="303.577" y1="114" x2="303.577" y2="308.862" gradientUnits="userSpaceOnUse">
<stop stop-color="#6842FF"/>
<stop offset="1" stop-color="#FF4D9C" stop-opacity="0.54"/>
</linearGradient>
<linearGradient id="paint1_linear_1_31" x1="415" y1="173" x2="415" y2="445" gradientUnits="userSpaceOnUse">
<stop stop-color="#9B70DF" stop-opacity="0.78"/>
<stop offset="1" stop-color="#FF4D9C"/>
<stop offset="1" stop-color="#6B288A"/>
</linearGradient>
</defs>
</svg>
