<svg xmlns="http://www.w3.org/2000/svg" viewBox="0 0 500 500"><g id="freepik--plant-2--inject-84"><path d="M384.17,296.78h0a.12.12,0,0,0-.07-.15.12.12,0,0,0-.16.06,161.47,161.47,0,0,0-8.47,26.58,246.43,246.43,0,0,0-4.68,27.55l-.67,7c-.1,1.16-.22,2.33-.31,3.49l-.19,3.49c-.1,2.33-.24,4.66-.31,7l.07,7,.07,3.5c.06,1.17.14,2.33.22,3.49.18,2.33.32,4.66.53,7,.45,4.64,1.14,9.25,1.86,13.85a.13.13,0,0,0,.12.1.13.13,0,0,0,.13-.12h0c0-2.33-.12-4.65-.17-7s-.27-4.63-.23-6.95-.05-4.64-.08-6.95l-.06-3.47.06-3.47,0-6.93.19-6.93.07-3.47c0-1.16.13-2.31.19-3.46l.43-6.93a247.29,247.29,0,0,1,3.92-27.48A160.16,160.16,0,0,1,384.17,296.78Z" style="fill:#263238"></path><path d="M385.16,333a.12.12,0,1,0-.23-.07A164.14,164.14,0,0,0,380,350.58a162.39,162.39,0,0,0-2.91,18.1c-.62,6.07-1.3,12.14-1.38,18.25a151.11,151.11,0,0,0,.65,18.29.11.11,0,0,0,.11.11.12.12,0,0,0,.13-.11c.71-6.07,1.14-12.13,1.56-18.19s.49-12.13.88-18.19a180.88,180.88,0,0,1,6.13-35.8Z" style="fill:#263238"></path><path d="M405.26,345.8a.13.13,0,0,0-.17,0,61.53,61.53,0,0,0-13.44,11.72,53.48,53.48,0,0,0-5.25,7.31l-1.08,2-.85,2.12a20.82,20.82,0,0,0-.74,2.14c-.21.73-.46,1.45-.65,2.17A86.45,86.45,0,0,0,380.3,391a102.61,102.61,0,0,0,.66,17.87.13.13,0,0,0,.12.1.12.12,0,0,0,.13-.11l1.53-17.68c.61-5.85,1-11.73,2.24-17.43.16-.72.37-1.41.54-2.12a20.77,20.77,0,0,1,.62-2.08l.72-2,.93-1.93a51.49,51.49,0,0,1,4.81-7.31A60.77,60.77,0,0,1,405.22,346h0A.13.13,0,0,0,405.26,345.8Z" style="fill:#263238"></path><path d="M395.53,368.51c-2.74,1.77-4.57,4.56-6.11,7.35a43.43,43.43,0,0,0-3.42,9c-.24.77-.43,1.55-.6,2.33l-.56,2.35a40.51,40.51,0,0,0-.59,4.78c0,1.6-.07,3.2,0,4.8a42.65,42.65,0,0,0,.63,4.77.13.13,0,0,0,.1.1.12.12,0,0,0,.15-.1,43.34,43.34,0,0,0,.84-4.7c.25-1.55.49-3.1.68-4.65s.43-3.07.55-4.63.33-3.1.67-4.61a41.17,41.17,0,0,1,2.62-8.92,19.62,19.62,0,0,1,5.13-7.66l0,0a.12.12,0,0,0,0-.16A.13.13,0,0,0,395.53,368.51Z" style="fill:#263238"></path><path d="M367.34,386.22c-.66-7.84-2-15.61-3.18-23.38s-2.58-15.51-4-23.24-3-15.43-4.67-23.11a.13.13,0,0,0-.15-.09.11.11,0,0,0-.09.14c1.34,7.74,2.55,15.5,3.7,23.26s2.29,15.53,3.27,23.32,1.71,15.59,2.68,23.36l2.87,23.36a.13.13,0,0,0,.12.11.12.12,0,0,0,.13-.11c.09-2,.09-3.94.14-5.91S368.08,400,368,398C368,394.07,367.64,390.15,367.34,386.22Z" style="fill:#263238"></path><path d="M362.63,386.11c-.42-3.11-1-6.2-1.58-9.28l-1.1-4.58c-.36-1.53-.71-3.06-1.15-4.57a130.87,130.87,0,0,0-6-17.85l-.94-2.16-1.05-2.11c-.66-1.42-1.47-2.78-2.23-4.15a35.13,35.13,0,0,0-5.67-7.51.12.12,0,0,0-.16,0,.14.14,0,0,0,0,.18h0a34.68,34.68,0,0,1,5.19,7.68c.68,1.4,1.4,2.77,2,4.21l.93,2.13.81,2.18a127.31,127.31,0,0,1,5.23,17.86c.72,3,1.19,6.1,1.78,9.14l.73,4.6c.27,1.53.6,3.05.81,4.59.49,3.07,1.05,6.13,1.59,9.2s1,6.15,1.69,9.22a.13.13,0,0,0,.12.11.12.12,0,0,0,.12-.13c0-3.13-.06-6.27-.22-9.4S363,389.23,362.63,386.11Z" style="fill:#263238"></path><path d="M356.14,386.51c-1.46-4.12-3.14-8.15-5-12.1A107.6,107.6,0,0,0,344.92,363a.14.14,0,0,0-.17,0,.12.12,0,0,0,0,.17A106.24,106.24,0,0,1,350,374.9c1.6,4,3,8.08,4.24,12.22s2.1,8.35,3.2,12.5,2.09,8.34,3.37,12.54a.14.14,0,0,0,.12.1.12.12,0,0,0,.12-.13,62.79,62.79,0,0,0-1.22-13.05A82.09,82.09,0,0,0,356.14,386.51Z" style="fill:#263238"></path><path d="M355.87,400.23a27.93,27.93,0,0,0-3.46-7.25,30.21,30.21,0,0,0-5-6.25,24.81,24.81,0,0,0-3.2-2.41,13.36,13.36,0,0,0-3.63-1.64.13.13,0,0,0-.14.07.12.12,0,0,0,.06.16h0a18.08,18.08,0,0,1,6,4.67,28.52,28.52,0,0,1,4.19,6.35c1.2,2.26,1.81,4.75,2.85,7.07.45,1.19.91,2.39,1.44,3.58a29.93,29.93,0,0,0,1.57,3.63h0a.12.12,0,0,0,.1.07.12.12,0,0,0,.13-.12,29.81,29.81,0,0,0-.14-4C356.46,402.84,356.18,401.53,355.87,400.23Z" style="fill:#263238"></path><path d="M356.35,327.73s-12.86-3-15.82-16.82,6.59-7.91-2-29.68-6.6-26.71-3.63-33,4.62-4.29,7.25,4,12.21,21.11,15.83,45.18S356.35,327.73,356.35,327.73Z" style="fill:#92E3A9"></path><path d="M381.75,304.32s-8.58-3-8.91-19.13,6.27-12.86,7.26-33,2.31-34.29,5.93-34.62,13.19,9.89,16.49,32.32-4.29,37.26-10.88,43.85S381.75,304.32,381.75,304.32Z" style="fill:#92E3A9"></path><path d="M351.74,347.19s-2-11.88-5.94-17.48-12.53-10.55-18.13-21.44-11.88-16.16-11.55-.66S323.38,331,332,336.3,351.74,347.19,351.74,347.19Z" style="fill:#92E3A9"></path><path d="M348.11,367.63s-7.91-15.17-19.46-26.38S307.88,324.43,311.18,330s7.25,5.27,12.86,15.17S328,362.35,335.91,368,348.11,367.63,348.11,367.63Z" style="fill:#92E3A9"></path><path d="M347.12,387.09c-.33-1-.66-8.25-11.87-14.18s-21.76-3.63-20.45-.66,8.25,7.91,15.17,10.88S347.12,387.09,347.12,387.09Z" style="fill:#92E3A9"></path><path d="M381.09,347.84s-4.95-6.26-2.31-19.45,8.57-9.89,15.17-16.82,5.27-7.91,11.87-15.17,12.53-11.21,15.17-8.24-1.32,12.2-5.28,17.48-10.22,7.91-13.19,14.5-1.65,17.15-9.23,22.1S381.09,347.84,381.09,347.84Z" style="fill:#92E3A9"></path><path d="M397.58,351.47S409.45,338,418,328.06s11.87-17.48,12.2-10.88,3,11.87-4,20.44S397.58,351.47,397.58,351.47Z" style="fill:#92E3A9"></path><path d="M391.31,373.24S391,368,409.78,355.76s26.71-14.51,24.73-9.56-10.22,9.89-19.13,18.79S391.31,373.24,391.31,373.24Z" style="fill:#92E3A9"></path><path d="M357.14,326.32s-4.41-23.65-9-40.47-7.58-27-7.58-27" style="fill:none;stroke:#263238;stroke-linecap:round;stroke-linejoin:round"></path><path d="M381,304.57s8-25.65,10.65-41.14-.33-27.05-1.65-34" style="fill:none;stroke:#263238;stroke-linecap:round;stroke-linejoin:round"></path><path d="M350.7,346.69a124.6,124.6,0,0,0-12.15-17.31c-7.26-8.58-12.86-13.19-16.16-21.44" style="fill:none;stroke:#263238;stroke-linecap:round;stroke-linejoin:round"></path><path d="M381.09,347.84s2.64-15.82,8.9-24.07,18.8-21.1,23.74-29.35" style="fill:none;stroke:#263238;stroke-linecap:round;stroke-linejoin:round"></path><path d="M346.35,386.73s-11.1-7.23-19-11.18" style="fill:none;stroke:#263238;stroke-linecap:round;stroke-linejoin:round"></path><path d="M378.62,456.67H364.1a6.37,6.37,0,0,1-5.88-3.91c-4.74-11.37-17.41-44.17-9.78-53.47,7.27-8.86,38.57-8.86,45.84,0,7.62,9.3-5,42.1-9.78,53.47A6.37,6.37,0,0,1,378.62,456.67Z" style="fill:#263238;stroke:#263238;stroke-linecap:round;stroke-linejoin:round"></path></g></svg>